<?xml version="1.0" encoding="UTF-8" standalone="no"?>
<svg
   xmlns:dc="http://purl.org/dc/elements/1.1/"
   xmlns:cc="http://creativecommons.org/ns#"
   xmlns:rdf="http://www.w3.org/1999/02/22-rdf-syntax-ns#"
   xmlns:svg="http://www.w3.org/2000/svg"
   xmlns="http://www.w3.org/2000/svg"
   xmlns:sodipodi="http://sodipodi.sourceforge.net/DTD/sodipodi-0.dtd"
   xmlns:inkscape="http://www.inkscape.org/namespaces/inkscape"
   width="24"
   height="24"
   viewBox="0 0 24 24"
   id="svg2"
   version="1.1"
   inkscape:version="0.91 r13725"
   sodipodi:docname="setting-gray.svg">
  <metadata
     id="metadata10">
    <rdf:RDF>
      <cc:Work
         rdf:about="">
        <dc:format>image/svg+xml</dc:format>
        <dc:type
           rdf:resource="http://purl.org/dc/dcmitype/StillImage" />
      </cc:Work>
    </rdf:RDF>
  </metadata>
  <defs
     id="defs8" />
  <sodipodi:namedview
     pagecolor="#ffffff"
     bordercolor="#666666"
     borderopacity="1"
     objecttolerance="10"
     gridtolerance="10"
     guidetolerance="10"
     inkscape:pageopacity="0"
     inkscape:pageshadow="2"
     inkscape:window-width="1920"
     inkscape:window-height="1035"
     id="namedview6"
     showgrid="false"
     inkscape:zoom="9.8333333"
     inkscape:cx="-2.8474576"
     inkscape:cy="12"
     inkscape:window-x="0"
     inkscape:window-y="1"
     inkscape:window-maximized="1"
     inkscape:current-layer="svg2" />
  <path
     d="M5.496 1.261l3.77 3.771c.409 1.889-2.33 4.66-4.242 4.242l-3.77-3.771c-.172.585-.254 1.189-.254 1.793 0 1.602.603 3.202 1.826 4.426 1.351 1.351 3.164 1.957 4.931 1.821.933-.072 1.852.269 2.514.931l7.621 7.611c.577.578 1.337.915 2.096.915 1.661 0 3.047-1.411 3.012-3.077-.016-.737-.352-1.47-.914-2.033l-7.621-7.612c-.662-.661-1.002-1.581-.931-2.514.137-1.767-.471-3.58-1.82-4.93-1.225-1.224-2.825-1.834-4.427-1.834-.603 0-1.207.09-1.791.261zm15.459 18.692c0 .553-.447 1-1 1-.553 0-1-.448-1-1s.447-1 1-1 1 .447 1 1z"
     id="path4"
     style="fill:#e7e7e7;fill-opacity:1" />
</svg>
